<?xml version="1.0" encoding="utf-8"?>
<!-- Generator: Adobe Illustrator 23.0.1, SVG Export Plug-In . SVG Version: 6.00 Build 0)  -->
<svg version="1.1"
	 id="Layer_1" inkscape:export-filename="/Users/pau/git/mm3/resources/android/icon-foreground.png" inkscape:export-xdpi="96" inkscape:export-ydpi="96" inkscape:version="0.92.2 5c3e80d, 2017-08-06" sodipodi:docname="icon-foreground.svg" xmlns:cc="http://creativecommons.org/ns#" xmlns:dc="http://purl.org/dc/elements/1.1/" xmlns:inkscape="http://www.inkscape.org/namespaces/inkscape" xmlns:rdf="http://www.w3.org/1999/02/22-rdf-syntax-ns#" xmlns:sodipodi="http://sodipodi.sourceforge.net/DTD/sodipodi-0.dtd" xmlns:svg="http://www.w3.org/2000/svg"
	 xmlns="http://www.w3.org/2000/svg" xmlns:xlink="http://www.w3.org/1999/xlink" x="0px" y="0px" viewBox="0 0 1024 1024"
	 style="enable-background:new 0 0 1024 1024;" xml:space="preserve">
<style type="text/css">
	.st0{clip-path:url(#SVGID_2_);}
	.st1{clip-path:url(#SVGID_4_);fill:#4EC0E9;}
	.st2{clip-path:url(#SVGID_4_);fill:#93D50A;}
	.st3{clip-path:url(#SVGID_4_);fill:#061F5C;}
	.st4{clip-path:url(#SVGID_4_);fill:#3BAE29;}
	.st5{clip-path:url(#SVGID_4_);fill:#03783D;}
	.st6{clip-path:url(#SVGID_4_);fill:#94D50B;}
	.st7{clip-path:url(#SVGID_4_);fill:#07205C;}
	.st8{clip-path:url(#SVGID_4_);fill:#0B72CE;}
	.st9{clip-path:url(#SVGID_4_);fill:#077940;}
	.st10{clip-path:url(#SVGID_4_);fill:#53658E;}
	.st11{clip-path:url(#SVGID_4_);fill:#61BE53;}
	.st12{clip-path:url(#SVGID_4_);fill:#52A27A;}
	.st13{clip-path:url(#SVGID_4_);fill:#7AD0EE;}
	.st14{clip-path:url(#SVGID_4_);fill:#57C3EA;}
	.st15{clip-path:url(#SVGID_4_);fill:#ABDE3F;}
	.st16{clip-path:url(#SVGID_4_);fill:#0971CD;}
</style>
<sodipodi:namedview  bordercolor="#666666" borderopacity="1" gridtolerance="10" guidetolerance="10" id="namedview21" inkscape:current-layer="Layer_1" inkscape:cx="-652.75324" inkscape:cy="-1188.1419" inkscape:pageopacity="0" inkscape:pageshadow="2" inkscape:window-height="970" inkscape:window-maximized="0" inkscape:window-width="1306" inkscape:window-x="1894" inkscape:window-y="73" inkscape:zoom="0.11523438" objecttolerance="10" pagecolor="#ffffff" showgrid="false">
	</sodipodi:namedview>
<title  id="title6">MoodleApp_Icon_White_RGB</title>
<g>
	<g>
		<defs>
			<rect id="SVGID_1_" x="287" y="325.9" width="405" height="403.1"/>
		</defs>
		<clipPath id="SVGID_2_">
			<use xlink:href="#SVGID_1_"  style="overflow:visible;"/>
		</clipPath>
		<g class="st0">
			<defs>
				<rect id="SVGID_3_" x="287" y="325.9" width="405" height="403.1"/>
			</defs>
			<clipPath id="SVGID_4_">
				<use xlink:href="#SVGID_3_"  style="overflow:visible;"/>
			</clipPath>
			<path class="st1" d="M486.3,539.3c-47.9,26.7-78.8,66.1-90,120.1c-4.9-1.6-2.3-5-1.9-7.9c3.6-41,22.3-75,50.1-104.5
				c6-6.3,12.6-12.1,18.9-18.1c4.6-8.4,13.7-11.5,20.6-17.2c12.6-8.1,25.1-16.3,39.4-21.2c12.3,4.2,23.2,10.1,29.5,22.2
				c-15.6,3.9-30.9,8.4-45.1,16.1C502,534.9,494.8,538.4,486.3,539.3"/>
			<path class="st2" d="M485,513.2c-7.2,5.2-14.4,10.5-21.5,15.7c-14.7-7.3-30-12.8-46.3-15.4c-6.7,0.4-13.3,0.8-18.7-4.3
				c-14.5-4.1-29.5-4.8-44.5-5.9c-1.7-4.1,1.1-6.8,3.2-9.4c7.4-9.1,12.6-20.4,24.6-25.1c15.3,1,29.2,7.4,43.6,11.8
				c7.5,3.5,15.3,6.2,22.9,9.3c10.2,5,20.3,10.2,30,16C481.2,507.6,485,508.7,485,513.2"/>
			<path class="st3" d="M411.1,413.4c21.1-16.6,44.7-28.8,69.8-38.2c3.8-1.4,7.1-1.8,11.2-0.3c17.3,6.6,34.2,14.1,49.8,24.3
				c-4,6-10.6,5.2-16.5,5.8c-11.9,1.1-23.5,3.2-35.2,5.8c-14.4,3.4-28.1,8.8-41.9,13.8C434.8,424.6,422,422.1,411.1,413.4"/>
			<path class="st4" d="M553,512.7c-8.7-8.3-18.1-15.6-29.1-20.8c-13-5.8-25.8-12.2-37.8-19.9c9.4-9.6,21.4-12.5,34.4-12.9
				c11.2,5.5,20.6,13.4,29.6,21.7c7.9,9.2,18.4,16.1,24.4,27c20.6,26.3,36.1,54.9,42.2,88.1c0.6,3.5,0.8,7,1.3,10.5
				c0.2,2.9,2.8,6.2-1.8,8C606.8,573.4,586.8,538.8,553,512.7"/>
			<path class="st4" d="M411.1,413.4c11.7,3.8,23.2,8.4,35.6,9.4c10.8,2.5,21,6.6,30.8,11.6c3.1,1.6,6.8,2.6,7.6,6.8
				c-10,9.8-21.5,17-35.1,20.8c-17.1-4.5-34.4-7.6-52-8.9c-7.9-2.7-17,1.8-24.5-3.9C384.3,435.3,397,423.6,411.1,413.4"/>
			<path class="st5" d="M488.3,408.7c16-4.9,32.7-5.6,49-8c1.5-0.2,3-0.9,4.5-1.4c27.9,17,51.9,38.2,70.1,65.5
				c-6.3,5.7-13.4,6.8-21.3,4.2c-6.6-5.2-13.2-10.5-19.3-16.3c-14.7-11.3-30.3-21.1-47.4-28.4c-9.7-3.6-19.1-8.1-29.3-10.5
				C491.9,413.1,488.7,412.4,488.3,408.7"/>
			<path class="st1" d="M591,467.1c7.4,2.7,14-1.8,21-2.4c9.8,10.8,15.7,23.8,21.4,37c-4.4,4.3-9.1,2.6-13.7,0.5
				c-15.2,1-30.3,2.1-45.1,5.7c-9.5-7.6-17.4-16.8-25.7-25.6c0.9-2.7,3.2-4.2,5.6-5C566.4,473.1,578.3,468.7,591,467.1"/>
			<path class="st6" d="M486.3,539.3c6.8-4.2,13.7-8.3,21.6-10.5c36,29.7,61.3,65.9,69.7,112.4c1.8,9.9,3.5,19.8,2.6,29.9
				c-0.5,0.9-1,1-1.5,0C570.3,611.7,537.4,569.2,486.3,539.3"/>
			<path class="st7" d="M373.6,449.1c8.6,1.2,17.6-1.6,26,2.2c-4,8.5-10.1,14.9-18.9,18.5c-10.7,9.7-19.3,21-26.7,33.3
				c-15.6,22.7-25,48.1-32,74.4c-4.9-1.6-2.3-5-1.9-7.9C326.6,524.5,343.4,483.9,373.6,449.1"/>
			<path class="st8" d="M398.5,509.1c6.5,0.5,12.8,1.5,18.7,4.3c-29,26.8-50,58.4-58.8,97.3c-0.6,2.8-0.8,5.8-1.8,8.5
				c-0.9,2.6-0.1,5.9-3.1,8.6C354.6,582.5,370.5,543.6,398.5,509.1"/>
			<path class="st9" d="M619.6,502.2c4.6-0.2,9.1-0.3,13.7-0.5c12.7,25.1,18.7,52,21.8,79.7c0.8,2-0.2,2.5-2,2.1
				C646.1,554.7,635.4,527.4,619.6,502.2"/>
			<path class="st10" d="M320,569.7c1.3,2.5-1.3,5.9,1.9,7.9c-1.4,7.2-2.9,14.3-4.3,21.5C316.6,589.1,317.1,579.3,320,569.7"/>
			<path class="st11" d="M620.1,622.4c-0.2,1.9-0.3,3.8-0.5,5.7c-3.4-4-2.4-9-3.4-13.6c2.4-2.3,0.8-5.4,1.8-8
				C620.8,611.6,619.1,617.2,620.1,622.4"/>
			<path class="st12" d="M653.1,583.5c0.7-0.7,1.3-1.4,2-2.1c2.8,5.7,1.7,11.7,1.3,17.7c-0.7,1-1.2,0.8-1.3-0.4
				C654.5,593.6,653.8,588.5,653.1,583.5"/>
			<path class="st13" d="M394.4,651.5c0.8,2.6-0.8,5.8,1.9,7.9c0.3,2.3,0.3,4.5-1.5,6.4c-1.7-0.8-0.8-2.9-1.9-4.1
				C392.7,658.2,392,654.6,394.4,651.5"/>
			<path class="st14" d="M393,661.7c0.6,1.3,1.2,2.7,1.9,4c-0.3,2,0.7,4.4-1.9,6.3V661.7z"/>
			<path class="st15" d="M578.7,671.2c0.5,0.1,1,0.1,1.5,0v9.3c-0.5,0-1,0-1.5,0V671.2z"/>
			<path class="st16" d="M486.7,471.9c-13.5,5.7-26.8,11.6-38.9,20l-22.5-9.4c5.5-11.5,15.7-17.5,26.9-22
				c11.1-6.5,22.1-13,33.2-19.5c4.1-7,12-7.9,18.5-11c7.3-3.4,15-5.3,22.7-7.5c15.9,8.1,31.7,16.5,45.4,28c-0.3,0.6-0.6,1.4-1.1,1.5
				c-16.5,2.8-32.6,8.1-49.5,8.7C508.8,461.6,497.7,466.6,486.7,471.9"/>
		</g>
	</g>
</g>
</svg>
